# xmcd CD database file
#
# Track frame offsets:
#	150
#	14519
#	31315
#	42118
#	55294
#	64325
#	74825
#	83714
#	98351
#	117463
#	129613
#	148086
#	166921
#	179151
#	190654
#	198178
#	213880
#	226699
#	247639
#	257961
#	271885
#	285339
#	304525
#	318107
#	334706
#
# Disc length: 4636 seconds
#
# Revision: 5
# Processed by: cddbd v1.5.2PL0 Copyright (c) Steve Scherf et al.
# Submitted via: CDex 1.70beta2
#
DISCID=5e121a19
DTITLE=25 Blues Masters - Volume 2
DYEAR=2001
DGENRE=Blues
TTITLE0=Memphis Slim - Blue And Lonesome
TTITLE1=Muddy Waters - Caldonia
TTITLE2=Big Joe Williams - Sinking Blues
TTITLE3=Billie Holiday - Billie Blues
TTITLE4=Canned Heat - Pretty Thing
TTITLE5=Ray Charles - Sitting On Top Of The World
TTITLE6=John Lee Hooker - Hobo Blues
TTITLE7=Lightnin' Hopkins - Goin' Back Home
TTITLE8=Mississippi John Hurt - Monday Morning Blues
TTITLE9=Leadbelly - Goodnight Irene
TTITLE10=Pinetop Perkins - Whiskey Headed Woman
TTITLE11=Howlin' Wolf - All My Life
TTITLE12=Jimmy Reed - Goin' Fishing
TTITLE13=Lightnin' Slim - Bad Luck Blues
TTITLE14=Big Joe Williams - Terraplane Blues
TTITLE15=Billie Holiday - Blue Moon
TTITLE16=Muddy Waters - Baby, Please Don't Go
TTITLE17=Big Joe Turner - Hide and Go Seek
TTITLE18=Canned Heat - Rollin' and Tumblin' (Part 1)
TTITLE19=Ray Charles - I'm Going Down To The River
TTITLE20=John Lee Hooker - Baby Lee
TTITLE21=Lightnin' Hopkins - Good Times
TTITLE22=Howlin' Wolf - Forty Four
TTITLE23=Mississippi John Hurt - Richland Woman Blues
TTITLE24=Leadbelly - Fannin Street
EXTD=YEAR: 2001
EXTT0=
EXTT1=
EXTT2=
EXTT3=
EXTT4=
EXTT5=
EXTT6=
EXTT7=
EXTT8=
EXTT9=
EXTT10=
EXTT11=
EXTT12=
EXTT13=
EXTT14=
EXTT15=
EXTT16=
EXTT17=
EXTT18=
EXTT19=
EXTT20=
EXTT21=
EXTT22=
EXTT23=
EXTT24=
PLAYORDER=
